<svg xmlns="http://www.w3.org/2000/svg" viewBox="0 0 1024 1024" width="1024" height="1024">
  <path d="m 524.5,821.5 c -35.20762,-4.8315 -67.28928,-22.75744 -97,-41.3 -18.87191,-16.94672 -3.70849,-49.05281 -7.98232,-72.50572 -0.0593,-53.54541 2.20968,-107.17223 0.0698,-160.66928 -1.65932,-33.28708 -60.39753,-18.87046 -46.80234,-57.36914 4.00829,-76.90219 26.33905,-158.90026 86.28144,-211.33406 19.00216,-17.9068 46.43007,-24.25333 71.53496,-28.55715 25.11637,0.18794 53.65984,-1.72377 75.49844,11.83535 -18.61826,-5.46288 -43.46051,3.31992 -63.93491,7.50188 -57.33933,16.21943 -98.38044,66.3114 -122.99009,118.38562 -16.49183,35.21586 -27.96897,73.83264 -28.5875,112.77187 16.62094,14.25258 47.62974,23.0642 45.0625,51.77344 1.567,62.62789 -1.21902,125.40646 1.875,187.94531 8.55196,34.3047 40.86585,57.42522 71.1541,72.00665 10.64104,5.87538 49.97157,13.03295 15.8209,9.51523 z" fill="currentColor" transform="translate(-13.947786,5.8115778)"></path>
  <path d="m 787.3,736.2 c -18.92047,-7.08206 -47.2534,-10.94634 -27.59844,-37.07344 6.35663,-25.54064 -29.83108,-43.06302 -17.93711,-72.27617 1.59553,-35.72697 33.89197,-69.5404 70.95039,-64.70215 14.41401,2.85388 39.32147,-3.57784 46.74766,9.06426 C 813.05645,565.12745 771.82483,613.94026 784,658.8 c 13.13964,24.31294 18.33875,49.0971 6.1875,75.2375 9.46664,5.33644 11.68068,4.8292 -2.8875,2.1625 z" fill="currentColor" transform="translate(-13.947786,5.8115778)"></path>
  <path d="M 375.9,800.6 C 338.46716,790.29073 299.22685,782.26923 265.20938,762.95625 215.28496,729.46222 207.36214,658.84405 227.45684,606.22324 236.31437,580.45497 256.04327,561.25399 273.4,541.2 c 4.19449,-30.8291 3.09356,-62.4701 8.77422,-93.3002 6.52649,-81.7491 40.03502,-163.8919 100.5366,-220.41406 41.12205,-38.91313 97.52033,-61.00832 153.97975,-60.04763 27.42225,6.43203 55.6121,8.79964 83.0938,14.42127 15.63704,5.66781 -24.42799,-1.93797 -32.60527,1.58964 -69.11761,-5.71026 -134.37761,33.90324 -176.11183,86.67306 -56.67418,69.88787 -77.96067,161.41593 -77.55848,249.89257 7.43619,32.32531 -11.15154,54.03583 -33.19785,74.15723 -32.82666,48.81422 -36.18816,122.52647 5.92055,167.0582 9.86665,17.2253 31.76709,9.21653 43.86851,19.86992 7.72624,8.44252 17.15275,17.62528 25.8,19.5 z" fill="currentColor"></path>
  <path d="M 694.7,713.9 C 685.20034,699.85776 656.83216,702.80105 662.40027,675.75623 658.0077,644.8576 644.57651,616.66009 632,588.5 c -3.16745,-41.23689 -2.00536,-83.02499 1.5875,-124.21387 3.15633,-29.44426 51.47506,-25.40826 36.4625,-60.81113 -3.45398,-64.38833 -28.89725,-135.97144 -90.36172,-166.10566 -8.96155,-6.5211 -49.1071,-6.47716 -16.62383,-11.31758 60.68123,-7.78617 112.05677,39.60805 136.74124,90.78913 20.28344,40.88386 28.57461,87.20842 26.86931,132.63411 -27.60788,7.73467 -42.45237,35.72451 -36.33361,65.65418 0.29892,57.42718 -1.96075,115.08668 1.62736,172.36301 8.58708,12.07019 3.73713,22.63126 2.73125,26.40781 z" fill="currentColor"></path>
  <path d="M 372,795 C 352.60436,792.14225 341.52219,774.4221 320.83789,776.57812 281.61917,756.97079 271.66676,708.22501 273.08438,667.99688 273.37458,627.91389 291.53662,589.01115 323.2,564.2 c 14.95874,-27.84014 3.32999,-64.50064 9.62505,-95.66045 7.02705,-102.54479 54.96235,-208.704 145.69221,-262.79703 33.29716,-20.12043 72.4056,-28.00389 111.01682,-25.15658 30.80724,-3.45962 55.84374,16.7229 79.92686,32.75722 65.27651,51.94647 92.78005,138.83586 90.20447,220.02724 1.115,10.6727 -1.30892,23.12524 1.92784,32.73083 31.06506,14.51554 48.53511,49.19215 50.18488,82.34408 -32.39985,8.56628 -68.91008,29.91825 -73.2629,68.58047 -6.70013,23.71424 -4.32348,48.26628 6.89727,71.39766 14.29843,27.9259 -32.0382,14.82107 -41.45519,25.07734 -22.21705,-18.42051 -15.63104,-48.90728 -16.75281,-74.67242 0.26986,-53.35693 -1.30278,-106.86923 1.3914,-160.12602 1.67515,-29.8055 48.82432,-19.4623 34.79238,-53.76875 C 719.9681,352.83966 688.21925,274.81136 621.47368,239.85122 590.99166,222.40985 555.26762,229.28643 523.5,237.1 c -8.9303,3.03271 -53.31629,25.30548 -37.4125,25.6 -11.66529,11.29845 -30.72735,15.35347 -42.0875,27.4 -11.05856,12.25364 -22.44181,27.93872 -32.1875,43.2875 -14.75629,21.70865 -22.31668,47.65857 -30.13047,72.85391 -9.4961,39.20877 -15.35229,79.86519 -12.80703,120.20859 27.11051,-7.04002 56.69286,14.22387 48.13809,46.24727 C 415.62451,639.59822 417.84191,706.80642 412.6,773.5 405.56717,789.88177 389.5389,799.08546 372,795 Z" fill="currentColor"></path>
  <path d="m 528.3,822 c -38.34653,-9.03062 -75.38926,-34.37092 -91.21512,-71.16636 -8.04735,-34.91828 -1.95323,-71.08541 -4.1477,-106.57017 -0.82963,-36.42006 3.14811,-73.73268 -3.98265,-109.51747 -16.77885,-18.85713 -54.45788,-27.21265 -39.65472,-60.77137 11.41812,-78.76809 52.30732,-158.64485 123.9726,-198.03054 26.07489,-12.82071 55.24968,-17.45699 83.97915,-19.46909 23.20814,6.18599 11.57076,26.38059 -6.79652,23.71968 -34.9124,14.23386 -56.97683,49.2773 -61.3859,85.88209 -7.35905,31.13238 -8.78765,64.09113 0.50484,94.92323 9.77444,58.96383 69.93134,87.1656 98.16891,135.5559 33.28549,51.85339 47.48475,123.84869 11.56977,178.12963 -18.47124,31.74239 -54.62199,52.14537 -91.61133,47.9398 C 541.23025,822.59547 534.75844,822.41447 528.3,822 Z" fill="currentColor" transform="translate(-13.947786,5.8115778)"></path>
  <path d="m 788.3,737 c 1.11234,-22.99157 13.01556,-45.50755 -4.7171,-66.60309 -14.50581,-38.65398 5.01717,-88.37499 46.42006,-99.90383 31.85458,-11.99345 61.48142,18.1043 64.89018,48.26325 6.41248,39.43597 -22.19554,84.47361 -64.28496,85.85993 C 811.76256,708.70691 809.22672,738.99397 788.3,737 Z" fill="currentColor" transform="translate(-13.947786,5.8115778)"></path>
</svg>